# AST/ASF file generated using VICON BodyLanguage
# -----------------------------------------------
:version 1.10
:name VICON
:units
  mass 1.0
  length 0.45
  angle deg
:documentation
   .ast/.asf automatically generated from VICON data using
   VICON BodyBuilder and BodyLanguage model FoxedUp or BRILLIANT.MOD
:root
   order TX TY TZ RX RY RZ
   axis XYZ
   position 0 0 0  
   orientation 0 0 0 
:bonedata
  begin
     id 1 
     name lhipjoint
     direction 0.662698 -0.695252 0.27831 
     length 2.53073 
     axis 0 0 0  XYZ
  end
  begin
     id 2 
     name lfemur
     direction 0.34202 -0.939693 0  
     length 7.16147  
     axis 0 0 20  XYZ
    dof rx ry rz
    limits (-160.0 20.0)
           (-70.0 70.0)
           (-60.0 70.0)
  end
  begin
     id 3 
     name ltibia
     direction 0.34202 -0.939693 0   
     length 7.63967   
     axis 0 0 20   XYZ
    dof rx
    limits (-10.0 170.0)
  end
  begin
     id 4 
     name lfoot
     direction 0.0938457 -0.257721 0.961651   
     length 1.89793   
     axis -90 7.62852e-016 20   XYZ
    dof rx rz
    limits (-45.0 90.0)
           (-70.0 20.0)
  end
  begin
     id 5 
     name ltoes
     direction -0.00116841 -0.0030592 0.999995   
     length 0.955649   
     axis -90 7.62852e-016 20   XYZ
    dof rx
    limits (-90.0 20.0)
  end
  begin
     id 6 
     name rhipjoint
     direction -0.649445 -0.705948 0.282592   
     length 2.49238  
     axis 0 0 0  XYZ 
  end
  begin
     id 7 
     name rfemur
     direction -0.34202 -0.939693 0   
     length 6.90728   
     axis 0 0 -20   XYZ
    dof rx ry rz
    limits (-160.0 20.0)
           (-70.0 70.0)
           (-70.0 60.0)
  end
  begin
     id 8 
     name rtibia
     direction -0.34202 -0.939693 0   
     length 7.72868   
     axis 0 0 -20   XYZ
    dof rx
    limits (-10.0 170.0)
 end
 begin
     id 9 
     name rfoot
     direction -0.0920068 -0.252865 0.963117   
     length 1.97476  
     axis -90 -7.62852e-016 -20   XYZ
    dof rx rz
    limits (-45.0 90.0)
           (-20.0 70.0)
  end
  begin
     id 10 
     name rtoes
     direction 0.000391322 0.00230649 0.999997   
     length 0.992641   
     axis -90 -7.62852e-016 -20   XYZ
    dof rx
    limits (-90.0 20.0)
  end
  begin
     id 11 
     name lowerback
     direction -0.00875327 0.998321 -0.0572635   
     length 2.20024   
     axis 0 0 0   XYZ
    dof rx ry rz
    limits (-20.0 45.0)
           (-30.0 30.0)
           (-30.0 30.0)
  end
  begin
     id 12 
     name upperback
     direction 0.00753931 0.999972 -0.000360425   
     length 2.20538   
     axis 0 0 0   XYZ
    dof rx ry rz
    limits (-20.0 45.0)
           (-30.0 30.0)
           (-30.0 30.0)
  end
  begin
     id 13 
     name thorax
     direction 0.0117767 0.999601 0.0256663   
     length 2.21508   
     axis 0 0 0   XYZ
    dof rx ry rz
    limits (-20.0 45.0)
           (-30.0 30.0)
           (-30.0 30.0)
  end
  begin
     id 14 
     name lowerneck
     direction 0.060228 0.994909 0.0807986   
     length 1.7607   
     axis 0 0 0   XYZ
    dof rx ry rz
    limits (-20.0 45.0)
           (-30.0 30.0)
           (-30.0 30.0)
  end
  begin
     id 15 
     name upperneck
     direction -0.0563647 0.959594 -0.275685   
     length 1.75612   
     axis 0 0 0   XYZ
    dof rx ry rz
    limits (-20.0 45.0)
           (-30.0 30.0)
           (-30.0 30.0)
  end
  begin
     id 16
     name head
     direction -0.0161544 0.99458 -0.102714  
     length 1.79288  
     axis 0 0 0   XYZ
    dof rx ry rz
    limits (-20.0 45.0)
           (-30.0 30.0)
           (-30.0 30.0)
  end
  begin
     id 17 
     name lclavicle
     direction 0.93913 0.332189 -0.087669  
     length 3.52087  
     axis 0 0 0   XYZ
    dof ry rz
    limits (-20.0 10.0)
           (0.0 20.0)
  end
  begin
     id 18 
     name lhumerus
     direction 1 -4.48974e-011 -2.70836e-027   
     length 5.35289   
     axis -180 -30 -90   XYZ
    dof rx ry rz
    limits (-60.0 90.0)
           (-90.0 90.0)
           (-90.0 90.0)
  end
  begin
     id 19
     name lradius
     direction 1 -4.48961e-011 -9.76021e-027   
     length 3.27727   
     axis -180 -30 -90   XYZ
    dof rx
    limits (-10.0 170.0)
  end
  begin
     id 20
     name lwrist
     direction 1 -4.49103e-011 -2.23668e-026   
     length 1.63864   
     axis 1.44924e-014 90 90   XYZ
    dof ry
    limits (-180.0 0.0)
 end
  begin
     id 21 
     name lhand
     direction 1 3.0697e-005 0.000161777   
     length 0.54443   
     axis 2.85318e-014 90 90   XYZ
    dof rx rz
    limits (-90.0 90.0)
           (-45.0 45.0)
  end
  begin
     id 22 
     name lfingers
     direction 1 -4.49027e-011 -8.9447e-026   
     length 0.438912   
     axis 5.70628e-014 90 90   XYZ
    dof rx
    limits (0.0 90.0)
  end
  begin
     id 23
     name lthumb
     direction 0.707058 2.6516e-005 0.707156   
     length 0.630274   
     axis -90 45 -3.53137e-014   XYZ
    dof rx rz
    limits (-45.0 45.0)
           (-45.0 45.0)
  end
  begin
     id 24 
     name rclavicle
     direction -0.95274 0.284984 -0.105215   
     length 3.43401  
     axis 0 0 0   XYZ 
    dof ry rz
    limits (-10.0 20.0)
           (-20.0 0.0)
  end
  begin
     id 25 
     name rhumerus
     direction -0.999999 -0.000575019 -0.00106829  
     length 5.52077   
     axis -180 30 90   XYZ
    dof rx ry rz
    limits (-90.0 60.0)
           (-90.0 90.0)
           (-90.0 90.0)
  end
  begin
     id 26 
     name rradius
     direction -1 -4.4879e-011 -6.35415e-027   
     length 3.32364   
     axis -180 30 90   XYZ
    dof rx
    limits (-10.0 170.0)
  end
  begin
     id 27 
     name rwrist
     direction -1 -4.49048e-011 -9.98542e-027   
     length 1.66182   
     axis 6.32482e-015 -90 -90   XYZ
    dof ry
    limits (-180.0 0.0)
  end
  begin
     id 28
     name rhand
     direction -1 -4.48978e-011 -1.99771e-026   
     length 0.732235   
     axis 1.27479e-014 -90 -90   XYZ
    dof rx rz
    limits (-90.0 90.0)
           (-45.0 45.0)
  end
  begin
     id 29
     name rfingers
     direction -1 -4.49144e-011 -3.99245e-026   
     length 0.590347   
     axis 2.5496e-014 -90 -90   XYZ
    dof rx
    limits (0.0 90.0)
  end
  begin
     id 30
     name rthumb
     direction -0.707107 -6.35121e-011 0.707107   
     length 0.847624   
     axis -90 -45 -2.82974e-014   XYZ
    dof rx rz
    limits (-45.0 45.0)
           (-45.0 45.0)
  end
:hierarchy
  begin
    root lhipjoint rhipjoint lowerback
    lhipjoint lfemur
    lfemur ltibia
    ltibia lfoot
    lfoot ltoes
    rhipjoint rfemur
    rfemur rtibia
    rtibia rfoot
    rfoot rtoes
    lowerback upperback
    upperback thorax
    thorax lowerneck lclavicle rclavicle
    lowerneck upperneck
    upperneck head
    lclavicle lhumerus
    lhumerus lradius
    lradius lwrist
    lwrist lhand lthumb
    lhand lfingers
    rclavicle rhumerus
    rhumerus rradius
    rradius rwrist
    rwrist rhand rthumb
    rhand rfingers
  end

#!OML:ASF G:\Work\Work\Patient Classification 1\Elijah\terrain1\Elijah.ASF
:FULLY-SPECIFIED
:DEGREES
143
root 3.58451 21.5469 14.5073 5.2034 -9.69488 -6.64741
lowerback -0.226193 1.14414 4.28015
upperback 1.72237 1.3954 4.15186
thorax 1.8989 0.724015 1.89849
lowerneck -13.9016 13.6671 13.3541
upperneck 32.327 19.7902 -9.03824
head 16.219 8.92409 -2.17789
rclavicle -3.03147e-014 -1.11319e-014
rhumerus -44.4833 4.61335 -76.9944
rradius 56.053
rwrist -14.296
rhand -13.1511 16.8491
rfingers 7.12502
rthumb 12.9475 -12.7292
lclavicle -3.03147e-014 -1.11319e-014
lhumerus -60.7101 7.96979 72.8166
lradius 24.7884
lwrist 2.77133
lhand -6.06932 29.0331
lfingers 7.12502
lthumb 19.7657 58.0482
rfemur 3.2068 -4.78406 24.5389
rtibia 43.2574
rfoot -21.9455 8.97766
rtoes -19.6018
lfemur -31.3118 -0.69732 -15.1821
ltibia 27.0614
lfoot 15.1261 5.36537
ltoes -17.8248
144
root 3.58731 21.4393 14.722 5.37964 -9.50015 -7.07962
lowerback -0.45654 1.04834 4.57316
upperback 1.2481 1.27521 4.19223
thorax 1.54568 0.660785 1.77124
lowerneck -13.1458 13.8357 14.105
upperneck 32.653 20.0703 -9.2251
head 16.3917 9.13303 -2.34626
rclavicle 1.01877e-014 9.06458e-014
rhumerus -45.7066 4.40799 -77.0701
rradius 56.3835
rwrist -14.6596
rhand -12.922 17.0514
rfingers 7.12502
rthumb 13.1684 -12.5128
lclavicle 1.01877e-014 9.06458e-014
lhumerus -61.0161 8.25367 72.0442
lradius 24.218
lwrist 3.08966
lhand -5.97171 29.5648
lfingers 7.12502
lthumb 19.8596 58.5702
rfemur 3.48227 -5.25755 24.6251
rtibia 44.3162
rfoot -21.7333 9.19189
rtoes -20.2142
lfemur -31.1044 0.212901 -15.3947
ltibia 27.8546
lfoot 11.6336 2.84976
ltoes -18.5436
145
root 3.58319 21.3309 14.9224 5.45329 -9.48377 -7.40286
lowerback -1.10562 1.11626 4.80281
upperback 1.37305 1.3047 4.10649
thorax 2.04754 0.686287 1.57277
lowerneck -13.3904 13.9693 14.1459
upperneck 32.6016 20.1754 -9.09001
head 16.4229 9.18402 -2.25128
rclavicle 1.84373e-014 1.55052e-014
rhumerus -45.8039 3.76394 -77.1621
rradius 56.2669
rwrist -15.1971
rhand -12.8551 17.5598
rfingers 7.12502
rthumb 13.2329 -12.0002
lclavicle 1.84373e-014 1.55052e-014
lhumerus -60.259 8.61185 71.3686
lradius 23.5743
lwrist 3.10248
lhand -6.16404 29.7419
lfingers 7.12502
lthumb 19.6747 58.7662
rfemur 3.51873 -5.40777 24.7535
rtibia 45.7212
rfoot -21.4252 9.13058
rtoes -21.714
lfemur -30.9257 1.23789 -15.7264
ltibia 28.9856
lfoot 7.15983 1.26199
ltoes -19.6087
146
root 3.58942 21.2199 15.0991 5.55317 -9.01603 -7.6418
lowerback -0.505853 0.918242 4.79016
upperback 0.619852 1.13532 4.2244
thorax 0.929566 0.580706 1.67258
lowerneck -12.9867 13.9981 13.9147
upperneck 33.0263 20.2565 -8.67473
head 16.4547 9.25559 -2.05586
rclavicle 7.25564e-015 1.51076e-014
rhumerus -46.9301 3.8846 -77.1553
rradius 55.8228
rwrist -15.6742
rhand -13.1082 18.1159
rfingers 7.12502
rthumb 12.9889 -11.4597
lclavicle 7.25564e-015 1.51076e-014
lhumerus -60.9457 8.8511 70.84
lradius 23.2359
lwrist 3.15543
lhand -7.07789 29.0095
lfingers 7.12502
lthumb 18.7959 58.1214
rfemur 3.30891 -5.9579 24.7751
rtibia 47.3942
rfoot -20.7473 9.57782
rtoes -21.5494
lfemur -30.9274 1.91526 -16.2618
ltibia 30.4223
lfoot 3.74578 0.604167
ltoes -20.9252
147
root 3.59897 21.1026 15.2801 5.62771 -8.58946 -7.95116
lowerback -0.908672 0.863225 5.14042
upperback 0.687069 1.02122 4.14998
thorax 1.2324 0.531473 1.40726
lowerneck -13.4995 14.1112 13.7834
upperneck 33.1654 20.3427 -8.45293
head 16.6017 9.27139 -1.88526
rclavicle 1.13804e-014 -3.18055e-014
rhumerus -46.8533 3.06607 -77.1366
rradius 55.3166
rwrist -15.7304
rhand -13.4543 17.9309
rfingers 7.12502
rthumb 12.6553 -11.6657
lclavicle 1.13804e-014 -3.18055e-014
lhumerus -59.8988 9.12327 70.4719
lradius 22.5402
lwrist 3.02821
lhand -7.87641 28.6978
lfingers 7.12502
lthumb 18.0278 57.8823
rfemur 3.06191 -6.49011 24.7834
rtibia 49.3463
rfoot -19.6364 10.212
rtoes -20.1822
lfemur -30.8996 2.41565 -16.6683
ltibia 32.0578
lfoot 0.462712 0.134841
ltoes -27.0324
148
root 3.60514 21.0126 15.4734 5.56711 -8.15238 -8.11339
lowerback -1.15619 0.78141 5.282
upperback 0.685588 0.890896 4.04315
thorax 1.37226 0.470486 1.21952
lowerneck -13.8449 14.1806 13.6088
upperneck 33.2804 20.3556 -8.14115
head 16.6644 9.27383 -1.70147
rclavicle -3.926e-015 -1.55052e-014
rhumerus -47.1369 2.24303 -77.1614
rradius 55.0083
rwrist -15.894
rhand -13.9252 17.5877
rfingers 7.12502
rthumb 12.2012 -12.0365
lclavicle -3.926e-015 -1.55052e-014
lhumerus -58.8469 9.57418 69.8527
lradius 21.5897
lwrist 2.37209
lhand -8.22138 29.0687
lfingers 7.12502
lthumb 17.6958 58.2834
rfemur 2.57016 -7.12522 24.598
rtibia 51.499
rfoot -17.998 10.5651
rtoes -20.0552
lfemur -31.1935 1.9405 -16.6717
ltibia 33.7875
lfoot -2.09754 0.863495
ltoes -19.0797
149
root 3.60947 20.9206 15.636 5.32473 -7.59971 -7.87216
lowerback -0.806434 0.622284 4.89509
upperback 0.571442 0.723021 3.93031
thorax 1.05101 0.378606 1.30818
lowerneck -13.9261 14.2257 13.2464
upperneck 33.1873 20.3818 -7.82097
head 16.5314 9.28253 -1.50808
rclavicle -2.18415e-014 -4.77083e-015
rhumerus -47.6854 1.69592 -77.1262
rradius 54.7495
rwrist -16.3446
rhand -14.5131 17.9946
rfingers 7.12502
rthumb 11.6343 -11.6624
lclavicle -2.18415e-014 -4.77083e-015
lhumerus -57.9538 10.1958 69.2391
lradius 20.6573
lwrist 1.36118
lhand -8.49616 29.3642
lfingers 7.12502
lthumb 17.4314 58.6026
rfemur 2.00992 -7.7382 24.0591
rtibia 53.9209
rfoot -16.115 10.8353
rtoes -20.1091
lfemur -31.5383 1.51578 -17.1545
ltibia 35.5896
lfoot -4.39372 0.992537
ltoes -15.0458
150
root 3.61743 20.8249 15.7647 5.06287 -6.9168 -7.49505
lowerback -0.107502 0.430004 4.37515
upperback 0.445612 0.533944 3.7958
thorax 0.522321 0.274046 1.44809
lowerneck -13.7671 14.3329 13.1706
upperneck 32.9047 20.5297 -7.77696
head 16.3537 9.3564 -1.459
rclavicle -2.98177e-015 -1.23246e-014
rhumerus -47.9876 1.04715 -77.0573
rradius 54.2706
rwrist -16.6479
rhand -15.1698 18.362
rfingers 7.12502
rthumb 11.0009 -11.3297
lclavicle -2.98177e-015 -1.23246e-014
lhumerus -56.9266 10.636 68.9784
lradius 19.8906
lwrist 0.35205
lhand -9.27559 29.2807
lfingers 7.12502
lthumb 16.6811 58.5839
rfemur 1.19728 -8.35678 23.415
rtibia 56.6189
rfoot -13.7165 11.1328
rtoes -18.9503
lfemur -31.9395 1.05931 -17.782
ltibia 37.2358
lfoot -6.25774 0.803109
ltoes -12.7915
151
root 3.60523 20.7222 15.8916 4.69719 -6.45719 -7.30894
lowerback 0.486566 0.387337 3.8864
upperback 0.533381 0.515159 3.63826
thorax 0.275634 0.261328 1.55394
lowerneck -13.8517 14.5034 13.5209
upperneck 32.7586 20.718 -7.91598
head 16.4018 9.45328 -1.51073
rclavicle -7.87684e-015 5.56597e-015
rhumerus -47.9686 0.0376486 -77.0783
rradius 53.5288
rwrist -16.8239
rhand -15.894 18.5213
rfingers 7.12502
rthumb 10.3024 -11.2064
lclavicle -7.87684e-015 5.56597e-015
lhumerus -55.5362 11.248 68.4291
lradius 19.3292
lwrist -1.12833
lhand -10.2837 28.9241
lfingers 7.12502
lthumb 15.7105 58.3063
rfemur 0.257354 -8.46244 23.1894
rtibia 59.4731
rfoot -11.2461 11.0472
rtoes -19.0813
lfemur -32.0243 0.785161 -18.0509
ltibia 38.7723
lfoot -7.66509 0.447987
ltoes -11.6853
152
root 3.60934 20.6061 16.0205 4.28895 -5.84649 -6.40543
lowerback 0.986176 0.382096 2.97677
upperback 0.441371 0.538917 3.17397
thorax -0.103531 0.268851 1.57989
lowerneck -13.8244 14.5711 14.0842
upperneck 32.8992 20.7558 -8.05807
head 16.5814 9.5114 -1.63393
rclavicle -1.07344e-014 -3.67752e-014
rhumerus -48.4017 -1.11711 -77.099
rradius 52.6149
rwrist -17.0919
rhand -16.8495 18.8188
rfingers 7.12502
rthumb 9.38054 -10.9525
lclavicle -1.07344e-014 -3.67752e-014
lhumerus -54.2965 11.7799 67.6342
lradius 18.9495
lwrist -3.03016
lhand -10.6513 28.944
lfingers 7.12502
lthumb 15.3564 58.3537
rfemur -0.733203 -8.78825 21.9331
rtibia 62.4894
rfoot -9.22692 11.474
rtoes -21.1575
lfemur -31.7729 0.338498 -19.1991
ltibia 40.0997
lfoot -9.15628 0.0856452
ltoes -14.9578
153
root 3.62234 20.5397 16.1474 3.9126 -5.25196 -5.17277
lowerback 1.55411 0.275529 1.64846
upperback 0.483218 0.403881 2.75856
thorax -0.384747 0.200241 1.89542
lowerneck -14.0044 14.5684 13.6808
upperneck 32.6174 20.713 -7.84066
head 16.3759 9.47468 -1.49107
rclavicle 1.46852e-014 3.77691e-014
rhumerus -48.0918 -2.01213 -77.1014
rradius 51.0241
rwrist -17.262
rhand -18.113 18.9258
rfingers 7.12502
rthumb 8.16125 -10.8966
lclavicle 1.46852e-014 3.77691e-014
lhumerus -52.8462 12.5111 67.361
lradius 18.5021
lwrist -5.07465
lhand -11.1934 29.0901
lfingers 7.12502
lthumb 14.8341 58.5391
rfemur -1.71799 -9.07839 20.2522
rtibia 65.2869
rfoot -7.18583 12.3319
rtoes -22.3114
lfemur -31.935 -0.501187 -20.4044
ltibia 41.2733
lfoot -9.874 -0.965113
ltoes -8.81606
